<svg xmlns="http://www.w3.org/2000/svg" viewBox="0 0 2000 1125">
<path fill="#b70507" fill-rule="evenodd" d="M 576.912 695.023 C 574.939 695.506, 570.985 696.824, 568.125 697.951 C 565.266 699.078, 561.844 700, 560.522 700 C 559.200 700, 557.838 700.453, 557.496 701.007 C 556.329 702.895, 560.046 703.237, 568.107 701.983 C 575.271 700.869, 576.807 700.928, 582.061 702.519 C 587.529 704.174, 588.429 704.192, 594.233 702.762 C 598.440 701.725, 604.679 701.263, 613.215 701.358 C 625.022 701.490, 625.997 701.357, 626.874 699.500 C 629.509 693.922, 630.913 694.257, 604.670 694.199 C 591.377 694.170, 578.885 694.541, 576.912 695.023 M 690.171 694.826 C 689.440 695.315, 679.919 695.628, 669.013 695.521 L 649.185 695.327 648.693 697.914 C 647.851 702.336, 648.446 705.532, 650.041 705.159 C 653.149 704.434, 690.689 702.794, 714.750 702.333 C 728.638 702.066, 740 701.459, 740 700.983 C 740 699.238, 737.284 698.546, 727.500 697.798 C 717.211 697.012, 702.556 695.503, 695.500 694.504 C 693.300 694.192, 690.902 694.337, 690.171 694.826 M 905.917 704.405 C 905.688 704.627, 895.205 705.544, 882.623 706.443 C 870.040 707.341, 857.541 708.549, 854.846 709.126 C 851.667 709.808, 848.989 709.843, 847.218 709.226 C 844.227 708.183, 844.282 708.180, 825.344 710.607 L 812.188 712.293 809.459 710.146 C 805.797 707.266, 802.422 707.441, 799.433 710.667 C 797.046 713.243, 796.787 713.294, 791.904 712.167 C 783.166 710.150, 779.405 710.657, 770.881 715 C 761.323 719.870, 756.141 720.210, 748.151 716.490 C 741.523 713.405, 742.007 713.387, 734.623 716.973 C 728.697 719.850, 727.985 719.953, 712.500 720.173 C 696.578 720.398, 696.481 720.386, 692.610 717.700 C 690.471 716.215, 688.363 715, 687.926 715 C 686.006 715, 681.430 717.282, 678.106 719.896 C 672.513 724.296, 670.447 724.582, 666.088 721.561 C 661.746 718.552, 660.818 718.714, 653.255 723.799 C 647.564 727.625, 646.637 727.563, 640.961 722.977 C 638.572 721.046, 638.207 721.015, 634.744 722.463 C 632.720 723.308, 630.144 724, 629.019 724 C 627.893 724, 626.139 724.521, 625.119 725.158 C 622.683 726.679, 620.194 725.640, 619.047 722.623 C 617.630 718.897, 616.234 718.625, 612.903 721.428 C 608.032 725.527, 604.839 724.178, 603.802 717.583 C 603.244 714.041, 601.249 714.874, 598.123 719.955 C 594.540 725.778, 592.356 726.318, 587.822 722.504 C 584.867 720.017, 582.232 720.198, 580.497 723.005 C 580.159 723.552, 577.210 724, 573.944 724 C 568.562 724, 567.643 724.328, 564.132 727.500 C 559.254 731.906, 557.796 731.878, 551.059 727.250 L 545.600 723.500 535.050 723.583 C 525.559 723.658, 523.465 724.035, 514.193 727.333 C 501.398 731.885, 497.902 731.999, 493.361 728.012 L 489.958 725.024 485.229 727.475 C 482.628 728.823, 479.702 730.157, 478.727 730.440 C 475.926 731.253, 475.493 733.937, 477.791 736.235 C 479.488 737.932, 481.807 738.462, 490.680 739.182 C 496.631 739.665, 502.938 739.806, 504.696 739.495 C 507.235 739.046, 508.116 739.348, 508.981 740.965 C 510.408 743.630, 514.873 743.627, 522.593 740.957 C 533.927 737.036, 544.256 738.731, 547.837 745.099 C 550.903 750.551, 556.613 750.349, 559.276 744.695 C 561.450 740.079, 563.223 740.755, 562.402 745.888 C 561.913 748.945, 562.243 750.162, 564.150 752.339 C 566.588 755.123, 568.634 755.503, 575.266 754.402 C 578.199 753.916, 580.192 754.365, 584.281 756.433 C 588.023 758.327, 592.109 759.348, 598.515 759.993 C 603.457 760.490, 608.877 761.183, 610.560 761.534 C 612.950 762.032, 615.047 761.387, 620.143 758.586 C 627.186 754.714, 630 754.125, 630 756.521 C 630 757.358, 631.105 758.546, 632.455 759.161 C 635.754 760.665, 640.478 758.693, 642.736 754.869 C 644.470 751.934, 647.236 750.410, 648.928 751.456 C 651.283 752.911, 670.117 756.207, 675.717 756.144 C 679.137 756.106, 683.510 756.733, 685.435 757.537 C 689.787 759.356, 696.035 759.426, 698.418 757.684 C 701.039 755.767, 700.064 752.567, 696.741 752.184 C 694.591 751.935, 694 751.343, 694 749.434 C 694 746.362, 696.558 746.224, 702 749 C 706.929 751.515, 708.447 751.505, 712.614 748.930 C 716.516 746.518, 719.017 747.219, 716.486 750.015 C 715.582 751.014, 712.290 752.840, 709.171 754.072 C 701.765 756.997, 701.151 757.656, 704.433 759.152 C 706.698 760.183, 708.323 760.104, 713.835 758.691 C 721.364 756.762, 725.592 756.531, 726.500 758 C 727.735 759.998, 731.022 758.922, 734.136 755.500 C 738.004 751.250, 738.064 751.246, 740.262 755.109 C 741.595 757.450, 742.448 758.017, 743.762 757.437 C 747.197 755.920, 761.797 756.029, 762.391 757.576 C 763.322 760.003, 768.025 759.186, 771.700 755.959 C 775.458 752.659, 777.264 752.688, 782.154 756.131 C 785.998 758.837, 790.771 758.636, 791.180 755.750 C 791.677 752.255, 797.777 752.069, 800.956 755.453 C 804.088 758.787, 810.753 759.036, 813.569 755.923 C 815.345 753.961, 815.357 753.687, 813.784 750.946 C 812.827 749.278, 812.519 747.797, 813.059 747.463 C 814.476 746.588, 815.812 747.741, 818.704 752.334 C 820.147 754.625, 822.042 757.048, 822.914 757.718 C 825.073 759.376, 834.606 759.234, 839.500 757.471 C 845.573 755.283, 849.649 755.630, 853.640 758.674 C 856.860 761.131, 857.424 761.248, 860.551 760.118 C 863.524 759.043, 864.560 759.158, 868.728 761.028 C 878.557 765.440, 891.604 765.785, 892.194 761.649 C 892.434 759.961, 893.143 759.527, 895.500 759.626 C 900.593 759.839, 910.362 762.444, 913.185 764.341 C 914.663 765.334, 917.136 766, 918.685 765.823 C 921.174 765.537, 921.500 765.095, 921.500 762 C 921.500 758.115, 921.619 758.081, 930.250 759.465 L 935 760.227 935 756.063 C 935 752.256, 935.298 751.774, 938.468 750.449 C 943.042 748.538, 942.888 748.488, 944.529 752.416 C 946.827 757.915, 950.790 758.163, 957.293 753.214 C 963.412 748.557, 966.941 746.607, 967.763 747.430 C 968.088 747.755, 967.375 748.934, 966.177 750.050 C 961.720 754.202, 964.719 758.022, 971.100 756.319 C 973.772 755.606, 975.249 755.594, 975.676 756.284 C 976.724 757.980, 972.871 759.999, 968.559 760.015 C 964.221 760.030, 959.909 761.738, 959.264 763.696 C 958.622 765.641, 966.931 769.244, 972.366 769.378 C 977.302 769.500, 977.314 769.492, 980.405 764.290 C 985.960 754.939, 988.603 754.675, 984.366 763.894 C 983.011 766.843, 982.037 769.941, 982.201 770.779 C 982.600 772.812, 986.902 773.380, 988.902 771.664 C 989.781 770.910, 993.573 769.803, 997.328 769.205 C 1005.191 767.951, 1007.346 766.592, 1006.715 763.287 C 1006.013 759.617, 1007.919 759.478, 1010.847 762.986 C 1013.369 766.007, 1013.795 766.153, 1018.159 765.499 C 1024.930 764.483, 1029 761.714, 1029 758.122 C 1029 756.393, 1028.359 754.968, 1027.418 754.607 C 1024.946 753.658, 1020.183 753.895, 1019.500 755 C 1018.378 756.815, 1014.203 756.042, 1011.121 753.448 C 1008.236 751.021, 1007.967 750.975, 1005.613 752.518 C 1003.241 754.072, 1003.068 754.034, 1001.469 751.592 C 999.617 748.766, 997.923 742.411, 998.790 741.544 C 999.096 741.238, 1000.845 742.623, 1002.677 744.623 C 1005.720 747.946, 1006.373 748.218, 1010.254 747.776 C 1012.934 747.471, 1016.862 745.764, 1020.905 743.146 C 1025.932 739.892, 1028.251 739, 1031.686 739 C 1039.732 739, 1038.761 744.701, 1030.413 746.472 C 1026.139 747.378, 1025.500 747.835, 1025.500 749.979 C 1025.500 752.080, 1026.099 752.547, 1029.545 753.135 C 1031.770 753.515, 1035.232 754.794, 1037.239 755.978 C 1042.063 758.825, 1044.314 757.608, 1047.482 750.445 C 1049.459 745.974, 1050.331 745, 1052.357 745 C 1054.452 745, 1054.925 745.598, 1055.493 748.958 C 1056.343 753.990, 1059.127 755.169, 1062.555 751.949 C 1064.676 749.956, 1065.609 749.779, 1071.016 750.344 C 1074.358 750.693, 1077.859 751.363, 1078.796 751.832 C 1082.192 753.534, 1085.266 751.702, 1086.815 747.054 C 1088.310 742.569, 1102.980 726, 1105.456 726 C 1107.276 726, 1115 732.262, 1115 733.737 C 1115 734.729, 1114.396 734.651, 1112.507 733.413 C 1109.944 731.734, 1105.805 732.087, 1103.256 734.203 C 1098.732 737.957, 1105.404 746.690, 1111.932 745.558 C 1113.894 745.217, 1117.547 744.763, 1120.048 744.549 C 1122.549 744.335, 1127.282 743.463, 1130.566 742.613 C 1138.169 740.642, 1141 741.288, 1141 744.994 C 1141 746.513, 1140.325 748.315, 1139.500 749 C 1137.299 750.827, 1137.439 759, 1139.671 759 C 1142.387 759, 1149.789 750.496, 1151.005 745.980 C 1151.610 743.734, 1152.764 741.644, 1153.570 741.335 C 1155.667 740.530, 1160.748 742.865, 1162.925 745.632 C 1164.383 747.486, 1165.409 747.868, 1167.697 747.411 C 1169.697 747.011, 1171.025 747.326, 1171.928 748.414 C 1175.182 752.334, 1180.950 749.179, 1178.871 744.616 C 1177.876 742.431, 1177.967 741.694, 1179.435 740.072 C 1182.472 736.715, 1183.754 738.488, 1183.826 746.143 C 1183.894 753.389, 1185.109 756.270, 1187.903 755.812 C 1188.781 755.668, 1190.100 755.926, 1190.833 756.385 C 1191.812 756.999, 1191.745 756.408, 1190.583 754.160 C 1189.712 752.477, 1189 749.929, 1189 748.499 L 1189 745.898 1195.727 746.483 C 1203.881 747.191, 1205.805 748.360, 1210.534 755.485 C 1214.214 761.029, 1216.628 762.473, 1221.148 761.833 C 1223.367 761.519, 1223.528 761.005, 1224 752.773 C 1224.413 745.562, 1224.876 743.671, 1226.667 741.884 C 1229.938 738.620, 1232 740.005, 1232 745.469 C 1232 750.967, 1233.493 751.304, 1241 747.500 C 1247.426 744.244, 1251.184 744.351, 1258.500 748 C 1264.755 751.120, 1271.420 751.916, 1275.044 749.977 C 1276.095 749.414, 1279.947 746.689, 1283.602 743.923 C 1288.844 739.955, 1290.909 738.956, 1293.374 739.196 C 1295.961 739.448, 1296.500 739.931, 1296.500 742 C 1296.500 744.304, 1296.167 744.485, 1292.250 744.311 C 1287.120 744.082, 1286.497 746.244, 1290.588 750.076 C 1292.971 752.307, 1293.945 752.495, 1302.838 752.434 C 1308.749 752.394, 1313.432 751.864, 1314.902 751.068 C 1317.093 749.881, 1317.236 749.931, 1316.538 751.634 C 1314.685 756.154, 1314.734 757, 1316.849 757 C 1320.520 757, 1325.844 753.790, 1327.066 750.841 C 1327.713 749.279, 1328.976 748.002, 1329.871 748.004 C 1332.875 748.011, 1337.760 751.800, 1340.074 755.919 C 1342.885 760.919, 1344.527 761.069, 1346.436 756.500 C 1348.113 752.486, 1351.232 751.798, 1353.232 755 C 1355.903 759.276, 1358.989 756.916, 1359.705 750.051 C 1360.162 745.669, 1360.457 745.419, 1363.770 746.607 C 1366.246 747.495, 1366.470 747.983, 1366.176 751.851 C 1365.516 760.536, 1373.344 763.415, 1380.214 757.015 C 1382.661 754.736, 1384.805 754.498, 1388.351 756.114 C 1390.257 756.982, 1391.890 756.865, 1395.751 755.583 C 1401.216 753.767, 1402.874 754.138, 1408.898 758.526 C 1413.430 761.826, 1415.566 761.685, 1416.850 758 C 1417.682 755.612, 1418.478 755, 1420.748 755 C 1422.317 755, 1424.162 755.563, 1424.848 756.250 C 1425.580 756.982, 1429.993 757.721, 1435.503 758.033 C 1443.176 758.468, 1445.332 758.951, 1447.205 760.658 C 1453.075 766.008, 1455.565 765.747, 1463 759 C 1467.165 755.221, 1467.872 754.938, 1472.500 755.208 L 1477.500 755.500 1477.800 751.921 C 1478.082 748.556, 1477.852 748.245, 1473.926 746.703 C 1471.001 745.554, 1469.209 745.353, 1467.941 746.032 C 1466.946 746.564, 1464.499 747, 1462.503 747 C 1459.345 747, 1458.915 747.283, 1459.187 749.181 C 1459.627 752.251, 1453.998 755.604, 1451.051 754.027 C 1447.146 751.937, 1448.437 748.335, 1454.477 744.472 C 1457.489 742.545, 1461.089 740.536, 1462.477 740.009 C 1466.613 738.436, 1465.623 735.340, 1461.176 735.942 C 1458.503 736.304, 1456.935 733.863, 1457.592 730.362 C 1457.939 728.513, 1457.835 726.959, 1457.361 726.909 C 1456.888 726.859, 1452.225 726.713, 1447 726.584 C 1441.775 726.456, 1435.025 725.645, 1432 724.783 C 1422.232 722, 1418.482 721.846, 1410.610 723.908 C 1402.862 725.938, 1400.927 725.808, 1391.705 722.640 C 1388.330 721.481, 1385.326 721.179, 1381.565 721.621 C 1377.643 722.082, 1374.988 721.779, 1371.592 720.482 C 1367.934 719.085, 1365.551 718.865, 1360.232 719.434 C 1351.448 720.373, 1345.192 720.222, 1336 718.848 C 1331.875 718.231, 1318.600 717.675, 1306.500 717.613 C 1287.198 717.514, 1283.875 717.732, 1279.402 719.393 L 1274.304 721.286 1268.531 718.643 C 1261.891 715.603, 1259.638 715.417, 1254.654 717.500 C 1249.584 719.619, 1248.077 719.437, 1238 715.500 C 1228.121 711.640, 1217.346 710.696, 1213.473 713.352 C 1209.803 715.869, 1181 716.438, 1181 713.994 C 1181 712.989, 1187.066 711.452, 1203 708.422 C 1215.516 706.041, 1220.578 704.451, 1216.283 704.250 C 1213.875 704.136, 1202.205 705.539, 1180 708.610 C 1169.825 710.017, 1158.350 711.554, 1154.500 712.026 C 1150.650 712.497, 1144.575 713.350, 1141 713.921 C 1131.494 715.440, 1118.657 715.225, 1111.732 713.431 C 1107.324 712.288, 1101.704 711.920, 1091.088 712.079 C 1069.651 712.400, 1070.717 712.567, 1071.500 709 C 1072.130 706.133, 1072.012 706.001, 1068.829 706.022 C 1066.998 706.034, 1063.475 706.979, 1061 708.121 C 1051.656 712.434, 1049.119 712.985, 1041.550 712.345 C 1034.568 711.755, 1034.183 711.589, 1032.872 708.614 C 1031.700 705.953, 1031.010 705.523, 1028.129 705.661 C 1024.048 705.855, 1016.429 712.771, 1015.466 717.155 C 1014.736 720.478, 1013.259 721.659, 1011.736 720.136 C 1010.951 719.351, 1011.114 718.531, 1012.324 717.195 C 1016.466 712.617, 1014.066 712.326, 1000 715.698 C 994.813 716.942, 989.811 717.144, 975.232 716.699 C 955.148 716.085, 952.956 715.467, 948.016 709.021 C 945.443 705.663, 943.857 705.262, 942 707.500 C 940.177 709.696, 937.665 709.337, 935 706.500 C 932.726 704.079, 932.236 704, 919.492 704 C 912.255 704, 906.146 704.182, 905.917 704.405"/>
<path fill="#0d0d0d" fill-rule="evenodd" d="M 1344.862 145.750 C 1325.316 165.788, 1316.950 181.581, 1316.848 198.636 C 1316.794 207.542, 1318.474 210.566, 1323.990 211.498 C 1331.133 212.705, 1331.999 211.432, 1332.007 199.715 C 1332.021 179.851, 1337.151 165.367, 1349.872 149.279 C 1353.914 144.168, 1355.347 139, 1352.723 139 C 1352.021 139, 1348.483 142.037, 1344.862 145.750 M 1219 151.663 C 1178.957 155.588, 1146.228 162.909, 1111.500 175.709 C 1059.528 194.865, 1014.539 226.566, 988.445 262.416 C 975.327 280.439, 976.471 279.520, 967.327 279.380 C 960.862 279.281, 957.847 278.617, 950 275.565 C 940.960 272.049, 939.774 271.844, 925.500 271.321 C 882.727 269.753, 850.622 279.066, 829.443 299.184 C 821.496 306.733, 812.420 319.069, 813.256 321.185 C 813.541 321.908, 816.638 323.580, 820.138 324.900 C 829.203 328.320, 858.140 342.879, 874 352 C 881.425 356.269, 892.879 362.795, 899.454 366.501 L 911.409 373.240 917.954 372.717 C 921.554 372.430, 929 370.759, 934.500 369.003 C 943.047 366.275, 946.462 365.735, 958 365.291 C 975.053 364.635, 980.689 365.695, 993.416 371.950 C 1006.918 378.587, 1014.507 380.009, 1040.286 380.728 C 1051.719 381.047, 1061.329 381.724, 1061.643 382.231 C 1062.755 384.030, 1058.817 391.953, 1055.258 395.078 C 1050.833 398.964, 1047.093 400.541, 1040.254 401.405 C 1032.882 402.336, 1027.525 404.877, 1017.925 411.995 C 1000.317 425.051, 984.429 430.083, 960.500 430.180 C 934.908 430.285, 919.108 424.533, 902.792 409.172 C 893.696 400.610, 881.495 391.720, 870 385.281 C 848.822 373.418, 809.615 354.020, 806.741 353.985 C 806.059 353.976, 801.485 352.182, 796.578 349.998 C 780.101 342.663, 778.241 342.980, 766.334 355.155 C 756.358 365.356, 735.343 383.144, 724.926 390.205 C 716.883 395.656, 709.733 398.056, 691 401.589 C 683.575 402.990, 673.057 405.067, 667.626 406.205 C 649.931 409.913, 630.221 407.297, 613.333 398.998 C 608.840 396.791, 604.036 393.643, 602.656 392.002 C 597.404 385.761, 596.514 367.484, 600.964 357.249 C 611.379 333.295, 667.244 316.863, 716.094 323.386 C 722.917 324.297, 734.575 325.714, 742 326.536 C 764.100 328.980, 781.209 333.649, 809.193 344.873 C 839.577 357.060, 861.744 367.944, 877.283 378.307 C 885.102 383.522, 896.225 390.391, 902 393.573 C 907.775 396.755, 914.112 400.605, 916.081 402.129 C 925.984 409.793, 941.131 416.179, 953.802 418.031 C 969.449 420.319, 989.764 414.048, 1016.500 398.675 L 1025.500 393.500 1016.144 392.781 C 1004.269 391.868, 996.680 389.914, 986 385.018 C 974.008 379.521, 969.718 378.662, 957.217 379.251 C 948.681 379.653, 945.075 380.318, 939.500 382.518 C 935.650 384.036, 930.043 385.873, 927.039 386.598 L 921.579 387.918 908.539 382.120 C 901.019 378.776, 889.363 372.373, 881 366.992 C 869.711 359.727, 836.800 342, 834.602 342 C 834.380 342, 830.441 340.254, 825.849 338.120 C 798.463 325.395, 784.913 320.922, 759.184 316.112 C 732.352 311.097, 720.245 309.691, 700 309.242 C 681.700 308.836, 679.391 308.998, 662.482 311.886 C 632.516 317.004, 622.592 320.163, 609.775 328.666 C 590.192 341.656, 583.022 354.481, 584.302 374.231 C 585.604 394.331, 597.810 408.193, 621.296 416.244 C 630.357 419.351, 630.796 419.400, 649.500 419.403 C 669.683 419.406, 684.277 417.527, 699.500 412.964 C 713.790 408.681, 714.928 408.499, 716.652 410.223 C 718.088 411.660, 718.033 412.391, 716.029 418.412 C 711.214 432.883, 709.833 451.065, 712.073 470.500 C 712.644 475.450, 713.327 486.528, 713.591 495.118 C 714.023 509.170, 713.864 511.290, 712.003 516.264 C 709.252 523.614, 703.066 533.032, 695.756 540.997 C 682.730 555.191, 673.018 569.997, 672.983 575.717 C 672.961 579.257, 669.865 590.975, 667.203 597.590 C 662.836 608.445, 650.618 627.292, 638.413 642 C 626.543 656.304, 625.888 658.103, 630.329 664.194 C 631.719 666.100, 632.435 669.095, 632.778 674.440 C 633.277 682.214, 631.371 689.814, 625.933 701.739 C 623.254 707.613, 623.494 709.512, 627.278 712.399 C 631.125 715.333, 638.771 718.947, 641.199 718.978 C 642.134 718.990, 644.150 717.358, 645.681 715.352 L 648.463 711.704 648.482 684.102 C 648.499 657.862, 648.615 656.155, 650.837 649.500 C 657.391 629.871, 679.127 596.438, 691.834 586.439 C 702.756 577.844, 720.747 569.793, 737.500 566.003 C 757.086 561.571, 765.514 558.801, 774.689 553.781 C 787.606 546.713, 793.208 541.286, 804.074 525.314 C 819.733 502.297, 839.369 485.582, 858.468 479.011 C 868.262 475.641, 872 477.086, 872 484.240 C 872 488.612, 868.905 491.512, 858.811 496.595 C 850.245 500.909, 848.818 503.352, 851.928 508.383 C 859.810 521.137, 882.061 531.976, 906.764 535.095 C 916.001 536.262, 916.050 536.256, 923.264 533.255 C 935.885 528.004, 943.090 526.641, 958 526.684 C 970.628 526.720, 972.029 526.924, 979.688 529.828 C 1014.427 543.003, 1057.308 543.548, 1112.862 531.521 C 1121.811 529.583, 1126.898 527.098, 1130.375 522.967 C 1134.684 517.845, 1134.959 515.477, 1133.574 495.451 C 1132.833 484.744, 1132.930 483.213, 1134.442 481.701 C 1137.645 478.497, 1151.635 480.148, 1156.038 484.250 C 1158.813 486.836, 1158.331 492.528, 1154.556 501.730 C 1148.192 517.243, 1153.105 529.377, 1174.099 550 C 1192.607 568.181, 1203.956 584.223, 1206.024 595.126 C 1206.842 599.438, 1208.040 601.325, 1214.039 607.749 C 1225.727 620.264, 1241.045 645.394, 1248.469 664.230 C 1251.114 670.943, 1251.119 670.999, 1250.117 685.730 C 1248.929 703.201, 1249.164 704.797, 1253.543 709.042 C 1256.734 712.134, 1257.171 712.262, 1262.796 711.752 C 1266.043 711.458, 1271.512 710.192, 1274.949 708.938 C 1282.553 706.166, 1284.234 703.630, 1281.381 699.235 C 1280.346 697.642, 1278.150 694.239, 1276.500 691.674 C 1274.850 689.109, 1271.598 684.420, 1269.274 681.255 C 1264.806 675.172, 1256.530 657.175, 1250.533 640.500 C 1246.160 628.342, 1243.654 613.505, 1244.978 607.600 C 1246.834 599.314, 1243.791 592.687, 1232.990 581.500 L 1225.266 573.500 1224.674 565.369 C 1224.348 560.896, 1222.882 552.571, 1221.417 546.869 C 1215.492 523.812, 1215.194 521.345, 1217.159 511.560 C 1218.001 507.370, 1219.181 504.925, 1221.463 502.643 C 1238.812 485.298, 1245.668 462.693, 1246.834 419 C 1248.017 374.675, 1247.903 373.860, 1235.703 339.425 C 1226.584 313.687, 1226.500 313.307, 1226.500 298 C 1226.500 284.699, 1228.241 272.236, 1232.646 254 C 1236.595 237.657, 1244.727 230.705, 1254.177 235.592 C 1257.246 237.178, 1257.254 237.205, 1256.711 243.842 C 1256.412 247.504, 1254.023 258.150, 1251.404 267.500 C 1246.705 284.268, 1246.640 284.704, 1246.598 299.500 C 1246.536 321.379, 1250.099 335.964, 1261.133 359 C 1267.875 373.077, 1269.276 383.741, 1269.406 422 C 1269.499 449.110, 1269.460 449.649, 1266.696 460 C 1262.527 475.609, 1256.115 488.147, 1248.608 495.369 C 1241.219 502.477, 1239.015 505.647, 1239.007 509.183 C 1238.989 516.149, 1248.743 512.131, 1255.156 502.530 C 1267.369 484.245, 1277.377 454.068, 1280.998 424.611 C 1282.430 412.960, 1282.395 388.429, 1280.932 378.985 C 1279.499 369.736, 1273.013 351.235, 1265.550 335.109 C 1257.644 318.025, 1255.658 311.237, 1255.572 301 L 1255.500 292.500 1258.500 292.158 C 1262.569 291.695, 1267.357 294.465, 1270.615 299.165 C 1272.100 301.308, 1273.806 302.915, 1274.407 302.736 C 1277.094 301.935, 1280.358 292.321, 1282.731 278.218 C 1285.417 262.256, 1287.695 256.372, 1293.877 249.434 C 1295.870 247.198, 1298.036 244.498, 1298.691 243.434 C 1299.723 241.759, 1299.890 242.119, 1299.941 246.124 C 1300.019 252.237, 1298.069 257.485, 1291.338 269.276 C 1284.178 281.821, 1283.636 287.167, 1288.794 294.357 C 1296.238 304.735, 1300 320.186, 1300 340.385 C 1300 351.837, 1300.111 352.064, 1307.547 355.800 C 1317.196 360.648, 1322.217 359.234, 1323.508 351.306 C 1324.830 343.190, 1327.257 338.658, 1333.630 332.409 C 1338.699 327.439, 1340.069 325.420, 1340.592 322.153 C 1341.548 316.170, 1347.047 305.782, 1350 304.380 C 1351.375 303.727, 1353.811 302.587, 1355.413 301.846 C 1359.094 300.145, 1361.502 296.250, 1363.991 287.969 C 1365.071 284.377, 1367.652 278.649, 1369.727 275.239 C 1374.554 267.308, 1388.752 251.110, 1396.500 244.697 C 1404.337 238.210, 1404.711 237.373, 1405.551 224.466 C 1406.074 216.442, 1406.816 212.427, 1408.318 209.500 C 1411.510 203.279, 1412.055 177.545, 1408.928 180.672 C 1408.416 181.184, 1406.912 187.246, 1405.588 194.143 C 1399.873 223.896, 1395.731 229.920, 1380.946 229.978 C 1371.285 230.016, 1365.368 225.086, 1359.313 211.953 C 1356.142 205.075, 1350.673 198, 1348.527 198 C 1347.684 198, 1346.871 201.048, 1346.091 207.126 C 1344.663 218.261, 1343.157 221.369, 1337.883 224.060 C 1333.264 226.416, 1322.924 226.864, 1316.027 225.007 C 1300.776 220.901, 1296.188 195.299, 1307.078 175.072 C 1308.685 172.087, 1310 169.143, 1310 168.530 C 1310 166.832, 1290.297 157.167, 1283.500 155.530 C 1267.443 151.665, 1237.377 149.862, 1219 151.663 M 1317.954 270.296 C 1313.187 274.009, 1311.274 283.257, 1314.392 287.521 C 1316.045 289.782, 1318.155 288.535, 1320.566 283.872 C 1323.604 277.997, 1321.580 267.473, 1317.954 270.296 M 1303.421 338.345 C 1302.218 341.479, 1303.494 345.433, 1306.193 346.942 C 1309.628 348.861, 1309.836 348.544, 1309.105 342.500 C 1308.596 338.294, 1308.142 337.449, 1306.246 337.180 C 1304.938 336.994, 1303.752 337.483, 1303.421 338.345 M 1297.684 464.857 C 1296.685 465.250, 1294.858 468.056, 1293.625 471.091 C 1289.645 480.883, 1284.116 488.713, 1272.523 500.976 C 1258.833 515.456, 1256.441 520.053, 1259.563 525.879 C 1263.896 533.962, 1276.872 533.686, 1295.148 525.123 C 1312.239 517.115, 1323.572 513.873, 1336.570 513.273 L 1347.641 512.762 1351.202 516.923 C 1357.452 524.225, 1358.241 530.122, 1356.496 556.500 L 1355.702 568.500 1350.037 574 C 1337.445 586.225, 1336.665 597.848, 1348.128 602.435 C 1353.405 604.546, 1356.675 603.826, 1361.823 599.420 C 1370.263 592.195, 1372.430 583.843, 1373.995 552.500 C 1375.571 520.957, 1373.663 498.220, 1368.736 489.813 C 1364.539 482.651, 1355.650 475.438, 1343.251 469.135 C 1335.596 465.243, 1304.184 462.294, 1297.684 464.857 M 832.227 527.333 C 830.977 528.027, 828.437 530.847, 826.583 533.600 C 824.729 536.353, 819.076 543, 814.020 548.370 C 808.804 553.911, 803.914 560.160, 802.715 562.817 C 798.288 572.630, 801.013 584.400, 808.951 589.747 C 813.184 592.598, 816.797 597.588, 827.239 615 C 831.692 622.425, 836.551 630.075, 838.037 632 C 841.546 636.546, 851.095 658.371, 855.976 673 C 860.893 687.738, 862.348 691.072, 865.506 694.824 C 870.095 700.279, 880.637 700.085, 883.182 694.500 C 884.205 692.254, 883.746 690.765, 879.226 681.673 C 876.414 676.015, 872.062 668.745, 869.556 665.518 C 867.050 662.291, 865 659.260, 865 658.784 C 865 658.307, 863.653 655.037, 862.008 651.516 C 860.362 647.996, 856.704 639.803, 853.878 633.308 C 851.052 626.814, 847.515 618.800, 846.018 615.500 C 836.536 594.604, 835.009 585.492, 838.986 573.542 C 841.701 565.383, 849.967 555.953, 860.119 549.433 C 864.746 546.461, 866.941 544.370, 867.414 542.485 C 868.382 538.631, 865.846 535.223, 861.508 534.547 C 859.578 534.246, 856.538 533.771, 854.750 533.491 C 852.962 533.211, 849.524 531.411, 847.109 529.491 C 842.323 525.685, 836.671 524.866, 832.227 527.333 M 552 701 C 552 701.550, 552.638 702, 553.418 702 C 554.198 702, 555.473 702.244, 556.252 702.543 C 557.095 702.867, 557.667 702.463, 557.667 701.543 C 557.667 700.515, 556.720 700, 554.833 700 C 553.275 700, 552 700.450, 552 701 M 1188.600 755.838 C 1188.282 756.353, 1188.652 757.296, 1189.422 757.935 C 1190.250 758.622, 1191.058 758.715, 1191.400 758.162 C 1191.718 757.647, 1191.348 756.704, 1190.578 756.065 C 1189.750 755.378, 1188.942 755.285, 1188.600 755.838 M 928.264 848.117 C 914.477 853.416, 907.054 869.591, 913.422 880.458 C 915.445 883.909, 917.549 885.473, 926.172 889.937 C 938.270 896.199, 941 898.412, 941 901.952 C 941 908.483, 935.226 912, 924.504 912 C 915.158 912, 912 909.753, 912 903.104 C 912 900.912, 911.663 898.949, 911.250 898.743 C 910.837 898.537, 907.385 898.623, 903.578 898.934 C 897.144 899.460, 896.593 899.692, 895.753 902.227 C 894.243 906.780, 896.621 915.557, 900.377 919.297 C 908.668 927.554, 930.856 928.523, 943 921.159 C 955.284 913.710, 960.960 899.931, 955.818 890.041 C 953.712 885.990, 952.358 884.984, 941.019 879.041 C 927.498 871.955, 925.443 869.713, 927.776 864.593 C 929.576 860.641, 933.303 858.824, 939.920 858.672 C 947.009 858.509, 950.711 860.679, 952.515 866.055 C 953.644 869.422, 953.807 869.507, 959.719 869.795 C 967.329 870.165, 969.378 868.596, 968.393 863.152 C 966.993 855.412, 962.450 850.023, 955.258 847.572 C 948.550 845.287, 934.911 845.562, 928.264 848.117 M 1366.275 847.539 C 1346.655 852.823, 1330.903 869.945, 1325.387 891.984 C 1318.294 920.323, 1343.743 936.149, 1372.379 921.206 C 1393.906 909.973, 1408.639 881.482, 1402.491 862.974 C 1398.032 849.548, 1382.846 843.076, 1366.275 847.539 M 575.580 847.871 C 575.284 848.350, 571.620 857.687, 567.438 868.621 C 563.256 879.554, 557.875 893.450, 555.480 899.500 C 544.429 927.411, 544.428 925.286, 555.502 924.799 L 562.306 924.500 568.426 908.500 L 574.546 892.500 593.318 892.228 L 612.090 891.956 613.900 887.728 C 614.896 885.402, 616.031 882.487, 616.423 881.250 L 617.135 879 599.067 879 C 578.180 879, 579.455 879.927, 583.933 868 L 586.749 860.500 605.897 860.228 L 625.044 859.957 627.522 854.354 C 628.885 851.272, 630 848.357, 630 847.876 C 630 846.734, 576.285 846.729, 575.580 847.871 M 642.515 847.976 C 640.656 850.984, 613.142 923.420, 613.586 924.138 C 614.486 925.596, 667.587 925.222, 668.705 923.750 C 669.698 922.445, 673 913.961, 673 912.717 C 673 912.322, 664.450 912, 654 912 C 639.381 912, 635 911.709, 635 910.739 C 635 909.652, 644.763 883.535, 654.893 857.523 C 656.602 853.135, 658 848.973, 658 848.273 C 658 846.724, 643.461 846.445, 642.515 847.976 M 709.260 847.818 C 707.872 848.700, 706.060 852.991, 695.256 881 C 681.530 916.583, 679 923.299, 679 924.153 C 679 924.619, 692.523 925, 709.051 925 L 739.102 925 740.587 921.447 C 741.403 919.493, 742.336 916.568, 742.661 914.947 L 743.250 912 721.625 912 C 709.731 912, 700 911.630, 700 911.178 C 700 910.726, 701.719 906.114, 703.820 900.928 L 707.639 891.500 727.570 891 L 747.500 890.500 749.728 886 C 753.970 877.435, 754.139 877.523, 733 877.339 C 718.277 877.211, 714.443 876.899, 714.220 875.814 C 714.066 875.064, 715.226 871.311, 716.798 867.475 L 719.656 860.500 740.372 860.230 L 761.089 859.959 762.900 855.730 C 763.896 853.403, 765.031 850.487, 765.423 849.250 L 766.135 847 738.317 847.015 C 723.018 847.024, 709.942 847.385, 709.260 847.818 M 774.413 850.553 C 773.597 852.507, 772.664 855.432, 772.339 857.053 L 771.750 860 782.375 860 C 788.219 860, 793 860.373, 793 860.829 C 793 861.936, 783.771 886.533, 775.676 907 C 772.087 916.075, 769.499 923.860, 769.924 924.299 C 770.350 924.739, 773.799 924.964, 777.590 924.799 C 785.679 924.448, 784.891 925.477, 791.611 906.500 C 793.948 899.900, 798.982 886.850, 802.798 877.500 L 809.735 860.500 821.112 860 L 832.488 859.500 834.666 854.029 C 835.864 851.019, 836.628 848.207, 836.363 847.779 C 836.099 847.350, 822.386 847, 805.890 847 L 775.898 847 774.413 850.553 M 846.085 849.250 C 845.609 850.487, 842.882 857.575, 840.026 865 C 837.169 872.425, 833.102 883.225, 830.988 889 C 828.874 894.775, 825.087 904.535, 822.572 910.690 C 820.058 916.844, 818 922.589, 818 923.455 C 818 924.858, 821.260 925.001, 848.052 924.765 L 878.104 924.500 880.547 918.500 C 881.891 915.200, 882.993 912.388, 882.995 912.250 C 882.998 912.112, 873.100 912, 861 912 C 842.459 912, 839 911.772, 839 910.551 C 839 909.755, 840.663 905.030, 842.696 900.051 L 846.391 891 866.574 891 L 886.756 891 889.021 884.943 C 890.401 881.255, 890.926 878.526, 890.366 877.966 C 889.860 877.460, 881.071 876.923, 870.835 876.773 L 852.224 876.500 855.198 868.270 L 858.172 860.039 879.187 859.770 L 900.202 859.500 902.100 854.500 C 903.144 851.750, 903.999 848.938, 903.999 848.250 C 904 847.279, 897.629 847, 875.475 847 L 846.950 847 846.085 849.250 M 1038.622 848.391 C 1037.866 849.001, 1036.515 851.722, 1035.620 854.439 C 1033.547 860.731, 1033.909 860.965, 1045.750 860.985 C 1052.169 860.995, 1055 861.360, 1055 862.177 C 1055 862.825, 1050.087 875.987, 1044.081 891.427 C 1038.076 906.867, 1032.853 920.733, 1032.475 922.241 C 1031.566 925.866, 1033.377 926.512, 1041.278 925.381 L 1047.430 924.500 1050.788 916 C 1052.634 911.325, 1057.003 899.625, 1060.497 890 C 1066.177 874.351, 1071.515 861.132, 1072.237 860.925 C 1072.382 860.884, 1075.875 860.626, 1080 860.352 C 1089.881 859.696, 1096.130 856.779, 1097.392 852.233 C 1097.891 850.436, 1098.119 848.793, 1097.900 848.582 C 1096.815 847.541, 1039.903 847.358, 1038.622 848.391 M 1133.753 847.697 C 1131.854 847.998, 1130.019 849.579, 1127.813 852.816 C 1126.057 855.392, 1120.735 862.675, 1115.986 869 C 1084.733 910.627, 1074.927 924.073, 1075.338 924.741 C 1075.595 925.159, 1079.181 925.275, 1083.307 925 L 1090.809 924.500 1095.281 918.415 C 1097.741 915.068, 1100.275 911.355, 1100.912 910.165 C 1102.023 908.089, 1102.702 908, 1117.495 908 L 1132.919 908 1133.210 916.250 L 1133.500 924.500 1140.588 924.791 L 1147.677 925.081 1148.364 887.366 C 1148.741 866.623, 1148.702 849.331, 1148.275 848.939 C 1147.252 848, 1137.241 847.144, 1133.753 847.697 M 1269.889 847.662 L 1266.279 848.104 1260.202 863.802 C 1256.859 872.436, 1250.244 889.510, 1245.500 901.745 C 1240.757 913.979, 1237.174 924.473, 1237.539 925.063 C 1238.298 926.291, 1250.914 925.323, 1252.417 923.921 C 1252.921 923.451, 1255.904 916.414, 1259.046 908.283 L 1264.758 893.500 1269.693 893.204 C 1276.139 892.818, 1279.536 894.201, 1281.508 898.015 C 1283.101 901.096, 1286.076 911.839, 1287.458 919.500 C 1287.854 921.700, 1288.644 924.063, 1289.212 924.750 C 1290.464 926.265, 1304.583 926.484, 1305.498 925.003 C 1306.401 923.542, 1301.287 905.448, 1298.054 898.666 C 1294.886 892.019, 1294.173 893.037, 1304.500 889.461 C 1317.722 884.882, 1326.233 868.097, 1321.154 856.615 C 1317.751 848.922, 1313.726 847.674, 1291.500 847.423 C 1281.600 847.311, 1271.875 847.419, 1269.889 847.662 M 1188.215 849.250 C 1184.800 853.394, 1167.889 899.329, 1167.322 906 C 1166.140 919.909, 1177.960 928.407, 1195.927 926.566 C 1213.653 924.750, 1224.148 914.521, 1233.558 889.885 C 1235.530 884.723, 1238.196 877.800, 1239.484 874.500 C 1247.467 854.044, 1249 849.938, 1249 849.022 C 1249 847.802, 1237.093 847.655, 1235.208 848.850 C 1234.497 849.301, 1232.391 853.682, 1230.527 858.585 C 1223.554 876.930, 1213.897 899.633, 1211.244 903.914 C 1207.229 910.397, 1201.355 913.267, 1193.116 912.772 C 1186.090 912.350, 1183 910.084, 1183 905.353 C 1183 899.810, 1191.250 874.728, 1196.503 864.303 C 1199.497 858.361, 1202.232 852.263, 1202.581 850.750 L 1203.217 848 1196.231 848 C 1191.858 848, 1188.860 848.468, 1188.215 849.250 M 1363.305 861.468 C 1348.056 868.099, 1335.809 896.001, 1343.280 907.088 C 1346.448 911.789, 1349.501 913.146, 1356 912.742 C 1370.563 911.837, 1383.525 897.917, 1387.012 879.437 C 1388.570 871.178, 1386.703 865.216, 1381.564 862.040 C 1377.629 859.607, 1368.258 859.314, 1363.305 861.468 M 1273.583 870.618 C 1271.558 875.907, 1270.134 880.467, 1270.418 880.751 C 1271.319 881.653, 1290.325 880.931, 1294.738 879.828 C 1300.445 878.401, 1306 872.354, 1306 867.569 C 1306 861.631, 1304.470 861, 1290.061 861 L 1277.264 861 1273.583 870.618 M 1122.622 879.322 C 1116.780 886.736, 1112 893.296, 1112 893.901 C 1112 894.632, 1115.630 895, 1122.850 895 L 1133.700 895 1134.285 881.250 C 1134.606 873.688, 1134.503 867.127, 1134.056 866.672 C 1133.609 866.216, 1128.464 871.909, 1122.622 879.322 M 512.481 970.394 C 498.163 976.632, 497.603 1003.758, 511.671 1009.636 C 515.925 1011.413, 523.168 1011.375, 527.532 1009.551 C 530.415 1008.347, 531 1007.587, 531 1005.051 C 531 1001.545, 530.507 1001.401, 526.067 1003.617 C 521.981 1005.655, 516.152 1004.858, 513.763 1001.936 C 511.244 998.854, 509.705 992.170, 510.380 987.243 C 511.745 977.288, 516.875 973.392, 524.843 976.257 C 530.054 978.131, 531 977.844, 531 974.390 C 531 969.758, 519.591 967.296, 512.481 970.394 M 619.500 970.492 C 606.132 975.186, 602.761 996.889, 613.939 1006.295 C 618.295 1009.960, 623.355 1011.326, 630.469 1010.755 C 640.895 1009.918, 641.117 1009.637, 640.784 997.696 L 640.500 987.500 632.500 987.500 C 624.633 987.500, 624.500 987.542, 624.500 990 C 624.500 992.226, 624.965 992.534, 628.750 992.807 L 633 993.115 633 998.538 C 633 1003.590, 632.816 1004.008, 630.314 1004.636 C 625.959 1005.729, 619.991 1003.037, 617.853 999.016 C 615.146 993.926, 615.351 985.259, 618.280 980.912 C 622.419 974.771, 628.118 973.510, 635.859 977.022 C 641.388 979.531, 641.183 979.583, 640.813 975.750 C 640.235 969.755, 629.290 967.055, 619.500 970.492 M 709.481 970.394 C 696.218 976.173, 694.271 999.394, 706.298 1008.373 C 709.908 1011.069, 719.298 1011.738, 724.282 1009.655 C 727.451 1008.331, 728 1007.640, 728 1004.968 C 728 1002.850, 727.594 1002.002, 726.750 1002.352 C 713.861 1007.697, 707.422 1003.550, 707.572 990 C 707.710 977.410, 714.076 971.885, 723.079 976.541 C 726.623 978.373, 728 977.771, 728 974.390 C 728 969.758, 716.591 967.296, 709.481 970.394 M 741.025 971.231 C 734.799 974.576, 731.725 980.667, 731.671 989.768 C 731.587 1004.021, 737.588 1011.035, 749.815 1010.978 C 762.181 1010.920, 768.886 1003.212, 768.934 989 C 768.977 976.249, 763.700 970.047, 752.148 969.272 C 746.509 968.894, 744.821 969.191, 741.025 971.231 M 820.314 970.950 C 816.227 973.442, 815 975.819, 815 981.247 C 815 986.234, 817.529 989.292, 824.567 992.817 C 829.800 995.438, 831.220 997.222, 830.822 1000.671 C 830.271 1005.450, 824.335 1006.183, 815.750 1002.531 C 814.296 1001.912, 814 1002.319, 814 1004.944 C 814 1007.602, 814.549 1008.331, 817.468 1009.551 C 828.879 1014.319, 840.740 1007.686, 839.665 997.138 C 839.135 991.936, 837.197 989.774, 829.305 985.583 C 824.223 982.884, 823.500 982.130, 823.500 979.524 C 823.500 975.349, 827.528 973.928, 832.559 976.327 C 836.716 978.309, 838 977.852, 838 974.390 C 838 969.455, 826.450 967.209, 820.314 970.950 M 854.025 971.241 C 847.800 974.571, 844.725 980.661, 844.671 989.768 C 844.607 1000.687, 848.037 1007.186, 855.315 1009.936 C 861.555 1012.294, 871.485 1010.536, 876.355 1006.212 C 884.664 998.833, 883.685 978.125, 874.718 971.589 C 870.277 968.352, 859.755 968.175, 854.025 971.241 M 1195.500 970.931 C 1188.370 974.599, 1186.500 978.687, 1186.500 990.603 C 1186.500 1001.636, 1187.367 1003.945, 1193.121 1008.241 C 1199.381 1012.915, 1213.225 1011.086, 1218.433 1004.897 C 1225.642 996.329, 1224.194 977.762, 1215.841 971.682 C 1211.725 968.684, 1200.660 968.276, 1195.500 970.931 M 1310.500 970.417 C 1303.354 973.607, 1299.859 980.011, 1299.777 990.066 C 1299.654 1005.106, 1307.131 1012.487, 1320.616 1010.639 C 1327.069 1009.755, 1329 1008.448, 1329 1004.965 C 1329 1001.503, 1329.240 1001.584, 1324.654 1003.500 C 1317.033 1006.684, 1311.323 1004.361, 1309.179 997.202 C 1304.848 982.746, 1313.331 970.983, 1324.079 976.541 C 1327.623 978.373, 1329 977.771, 1329 974.390 C 1329 969.748, 1317.522 967.283, 1310.500 970.417 M 1402.500 970.995 C 1394.916 974.775, 1391.487 983.753, 1393.097 995.617 C 1394.373 1005.020, 1399.466 1010.042, 1408.484 1010.790 C 1418.847 1011.650, 1426.653 1006.691, 1429.085 997.705 C 1430.641 991.953, 1429.736 980.958, 1427.366 976.831 C 1423.282 969.717, 1410.897 966.810, 1402.500 970.995 M 545.516 971.197 C 539.415 988.400, 533 1007.626, 533 1008.710 C 533 1009.725, 534.031 1010.034, 536.673 1009.810 C 540.019 1009.528, 540.472 1009.119, 541.769 1005.210 L 543.194 1000.919 550.767 1001.210 L 558.339 1001.500 559.753 1005.750 C 561.095 1009.786, 561.364 1010, 565.083 1010 C 568.149 1010, 568.999 1009.620, 568.993 1008.250 C 568.990 1007.288, 566.129 998.400, 562.637 988.500 L 556.287 970.500 551.132 970.197 C 547.577 969.989, 545.834 970.299, 545.516 971.197 M 574.445 971.282 C 574.175 971.987, 574.076 980.875, 574.227 991.032 L 574.500 1009.500 578.250 1009.810 C 582.491 1010.161, 582.299 1010.648, 582.019 1000.250 C 581.829 993.212, 581.894 993, 584.221 993 C 587.966 993, 589.732 994.956, 592.800 1002.500 C 595.636 1009.476, 595.660 1009.501, 599.823 1009.807 C 602.120 1009.977, 604 1009.717, 604 1009.230 C 604 1007.184, 598.663 995.332, 596.868 993.391 C 594.922 991.288, 594.926 991.274, 598.459 987.741 C 603.703 982.497, 602.985 975.791, 596.775 972.004 C 592.788 969.573, 575.318 969.008, 574.445 971.282 M 656.615 974.201 C 651.968 986.789, 645 1007.494, 645 1008.717 C 645 1009.724, 646.039 1010.033, 648.673 1009.810 C 652.019 1009.528, 652.472 1009.119, 653.769 1005.210 L 655.194 1000.919 662.767 1001.210 L 670.339 1001.500 671.753 1005.750 C 673.095 1009.786, 673.364 1010, 677.083 1010 C 680.149 1010, 680.999 1009.620, 680.993 1008.250 C 680.989 1007.288, 678.117 998.400, 674.609 988.500 L 668.232 970.500 663.218 970.201 L 658.203 969.903 656.615 974.201 M 775.484 972.250 C 775.180 973.487, 775.058 982.375, 775.215 992 L 775.500 1009.500 779 1009.500 L 782.500 1009.500 783 995.196 L 783.500 980.892 788.768 991.495 C 797.544 1009.156, 798.344 1010.165, 803.297 1009.805 L 807.500 1009.500 807.771 989.750 L 808.042 970 804.521 970 L 801 970 800.962 984.250 L 800.924 998.500 794.077 985.130 C 790.311 977.777, 786.616 971.371, 785.865 970.895 C 785.114 970.420, 782.596 970.024, 780.269 970.015 C 776.706 970.002, 775.951 970.355, 775.484 972.250 M 888.714 970.619 C 887.848 971.485, 887.750 1006.184, 888.607 1008.418 C 889.107 1009.720, 891.052 1010, 899.607 1010 L 910 1010 910 1007 L 910 1004 903.579 1004 C 897.176 1004, 897.157 1003.991, 896.460 1000.816 C 896.075 999.065, 895.927 991.528, 896.130 984.066 L 896.500 970.500 892.964 970.202 C 891.020 970.039, 889.107 970.226, 888.714 970.619 M 915.469 971.221 C 915.185 971.960, 915.076 980.875, 915.227 991.032 L 915.500 1009.500 919.216 1009.808 C 924.069 1010.211, 924.141 1009.867, 923.785 988 L 923.500 970.500 919.742 970.189 C 917.284 969.986, 915.806 970.343, 915.469 971.221 M 931.667 970.667 C 930.681 971.652, 930.886 1007.272, 931.887 1008.851 C 933.298 1011.079, 950.475 1010.038, 955.460 1007.423 C 961.718 1004.140, 964.226 998.465, 963.823 988.500 C 963.263 974.636, 957.716 970.061, 941.417 970.022 C 936.421 970.010, 932.033 970.300, 931.667 970.667 M 978.516 971.197 C 972.415 988.400, 966 1007.626, 966 1008.710 C 966 1009.725, 967.031 1010.034, 969.673 1009.810 C 973.019 1009.528, 973.472 1009.119, 974.769 1005.210 L 976.194 1000.919 983.767 1001.210 L 991.339 1001.500 992.753 1005.750 C 994.095 1009.786, 994.364 1010, 998.083 1010 C 1001.158 1010, 1001.994 1009.624, 1001.972 1008.250 C 1001.956 1007.288, 999.104 998.400, 995.633 988.500 L 989.323 970.500 984.150 970.197 C 980.580 969.988, 978.835 970.298, 978.516 971.197 M 1007.667 970.667 C 1006.672 971.661, 1006.891 1007.279, 1007.901 1008.874 C 1009.299 1011.080, 1026.455 1009.998, 1031.488 1007.386 C 1037.712 1004.156, 1040.226 998.461, 1039.823 988.500 C 1039.263 974.636, 1033.716 970.061, 1017.417 970.022 C 1012.421 970.010, 1008.033 970.300, 1007.667 970.667 M 1054.497 971.250 C 1048.194 989.151, 1042 1007.753, 1042 1008.782 C 1042 1009.714, 1043.117 1010.026, 1045.673 1009.810 C 1049.019 1009.528, 1049.472 1009.119, 1050.769 1005.210 L 1052.194 1000.919 1059.767 1001.210 L 1067.339 1001.500 1068.753 1005.750 C 1070.095 1009.786, 1070.364 1010, 1074.083 1010 C 1076.971 1010, 1078 1009.589, 1078 1008.435 C 1078 1006.224, 1067.097 974.970, 1065.377 972.250 C 1064.245 970.460, 1063.033 970, 1059.446 970 C 1056.740 970, 1054.761 970.500, 1054.497 971.250 M 1106.260 971.202 C 1104.943 972.808, 1093 1006.483, 1093 1008.591 C 1093 1009.743, 1093.908 1010.044, 1096.673 1009.810 C 1100.019 1009.528, 1100.472 1009.119, 1101.769 1005.210 L 1103.194 1000.919 1110.767 1001.210 L 1118.339 1001.500 1119.753 1005.750 C 1121.095 1009.786, 1121.364 1010, 1125.083 1010 C 1128.159 1010, 1128.993 1009.624, 1128.968 1008.250 C 1128.951 1007.288, 1126.077 998.400, 1122.582 988.500 L 1116.229 970.500 1111.777 970.202 C 1109.013 970.017, 1106.921 970.396, 1106.260 971.202 M 1148.489 971.169 C 1148.194 971.937, 1148.076 980.875, 1148.227 991.032 L 1148.500 1009.500 1156.238 1009.792 C 1173.646 1010.448, 1181.020 1004.337, 1180.984 989.282 C 1180.964 981.159, 1178.356 975.696, 1173.007 972.572 C 1168.511 969.946, 1149.378 968.852, 1148.489 971.169 M 1230.099 971.380 C 1229.307 972.335, 1229.038 978.428, 1229.227 991.130 L 1229.500 1009.500 1233 1009.500 L 1236.500 1009.500 1237 993.500 L 1237.500 977.500 1243 993.500 L 1248.500 1009.500 1252.158 1009.805 C 1256.293 1010.150, 1255.179 1012.224, 1263.597 988.500 L 1267.500 977.500 1268 993.500 L 1268.500 1009.500 1272 1009.500 L 1275.500 1009.500 1275.773 991.130 C 1275.962 978.428, 1275.693 972.335, 1274.901 971.380 C 1273.455 969.638, 1264.613 969.539, 1263.247 971.250 C 1262.698 971.938, 1260.388 977.612, 1258.113 983.860 C 1255.838 990.108, 1253.625 995.848, 1253.195 996.616 C 1252.685 997.526, 1250.896 993.751, 1248.049 985.756 C 1245.648 979.015, 1243.010 972.712, 1242.187 971.750 C 1240.326 969.574, 1231.815 969.314, 1230.099 971.380 M 1284.445 971.282 C 1284.175 971.987, 1284.076 980.875, 1284.227 991.032 L 1284.500 1009.500 1288.188 1009.807 L 1291.875 1010.113 1292.188 991.307 C 1292.359 980.963, 1292.339 971.938, 1292.143 971.250 C 1291.673 969.604, 1285.079 969.631, 1284.445 971.282 M 1334.469 971.221 C 1334.185 971.960, 1334.076 980.875, 1334.227 991.032 L 1334.500 1009.500 1338.250 1009.810 L 1342 1010.121 1342.214 996.060 C 1342.332 988.327, 1342.445 979.413, 1342.464 976.250 L 1342.500 970.500 1338.742 970.189 C 1336.284 969.986, 1334.806 970.343, 1334.469 971.221 M 1351.714 970.619 C 1350.848 971.485, 1350.750 1006.184, 1351.607 1008.418 C 1352.107 1009.720, 1354.052 1010, 1362.607 1010 L 1373 1010 1373 1007 L 1373 1004 1366.524 1004 L 1360.048 1004 1359.774 987.250 L 1359.500 970.500 1355.964 970.202 C 1354.020 970.039, 1352.107 970.226, 1351.714 970.619 M 1377.469 971.221 C 1377.185 971.960, 1377.076 980.875, 1377.227 991.032 L 1377.500 1009.500 1381.250 1009.810 L 1385 1010.121 1385.214 996.060 C 1385.332 988.327, 1385.445 979.413, 1385.464 976.250 L 1385.500 970.500 1381.742 970.189 C 1379.284 969.986, 1377.806 970.343, 1377.469 971.221 M 745.117 976.631 C 737.833 981.732, 738.489 1000.889, 746.055 1004.023 C 755.646 1007.995, 762.516 998.478, 759.975 984.739 C 758.389 976.157, 751.309 972.294, 745.117 976.631 M 857.669 977.045 C 850.809 982.442, 851.763 1001.002, 859.055 1004.023 C 866.084 1006.934, 871.475 1003.185, 873.152 994.220 C 875.750 980.337, 866.512 970.090, 857.669 977.045 M 1198.707 977.016 C 1195.183 979.788, 1193.652 985.080, 1194.244 992.449 C 1194.794 999.306, 1196.245 1002.335, 1199.743 1003.929 C 1209.613 1008.426, 1216.600 998.946, 1213.958 984.645 C 1212.339 975.889, 1204.882 972.158, 1198.707 977.016 M 1405.707 977.016 C 1402.183 979.788, 1400.652 985.080, 1401.244 992.449 C 1401.813 999.544, 1403.314 1002.473, 1407.206 1004.085 C 1416.848 1008.079, 1423.887 997.898, 1420.951 984.206 C 1419.131 975.722, 1411.768 972.249, 1405.707 977.016 M 582.667 976.667 C 581.833 977.500, 581.794 983.299, 582.607 985.418 C 583.407 987.502, 589.348 987.509, 591.429 985.429 C 593.658 983.199, 593.447 978.310, 591.066 977.035 C 588.896 975.874, 583.688 975.646, 582.667 976.667 M 939.980 976.250 C 939.337 984.460, 939.012 999.913, 939.447 1001.644 C 940.169 1004.521, 945.351 1004.904, 950.128 1002.434 C 958.287 998.214, 957.900 980.945, 949.568 977.464 C 946.634 976.238, 940.047 975.404, 939.980 976.250 M 1015.201 990.006 L 1014.901 1004 1019 1004 C 1027.300 1004, 1032 998.938, 1032 990 C 1032 981.183, 1027.290 975.994, 1019.300 976.006 L 1015.500 976.012 1015.201 990.006 M 1156 990 L 1156 1004 1160.050 1004 C 1168.299 1004, 1173 998.918, 1173 990 C 1173 981.082, 1168.299 976, 1160.050 976 L 1156 976 1156 990 M 547.775 986.250 L 545.221 994.500 550.221 994.806 C 552.971 994.974, 555.386 994.947, 555.588 994.746 C 555.978 994.356, 551.132 978, 550.626 978 C 550.462 978, 549.179 981.712, 547.775 986.250 M 659.775 986.250 L 657.221 994.500 662.221 994.806 C 664.971 994.974, 667.386 994.947, 667.588 994.746 C 667.978 994.356, 663.132 978, 662.626 978 C 662.462 978, 661.179 981.712, 659.775 986.250 M 980.833 986.250 L 978.367 994.500 983.294 994.806 C 986.004 994.974, 988.409 994.925, 988.638 994.695 C 989.065 994.269, 984.162 978, 983.606 978 C 983.438 978, 982.190 981.712, 980.833 986.250 M 1056.775 986.250 L 1054.221 994.500 1059.221 994.806 C 1061.971 994.974, 1064.409 994.925, 1064.638 994.695 C 1065.058 994.276, 1060.166 978, 1059.621 978 C 1059.460 978, 1058.179 981.712, 1056.775 986.250 M 1107.775 986.250 L 1105.221 994.500 1110.221 994.806 C 1112.971 994.974, 1115.443 994.890, 1115.714 994.620 C 1116.163 994.170, 1111.170 978, 1110.582 978 C 1110.443 978, 1109.179 981.712, 1107.775 986.250"/>
</svg>